<svg width="256" height="256" viewBox="0 0 256 256" fill="none" xmlns="http://www.w3.org/2000/svg">
<rect x="7.5" y="7.5" width="241" height="241" rx="48.5" fill="#232323"/>
<rect x="7.5" y="7.5" width="241" height="241" rx="48.5" stroke="#ACFC7E" stroke-width="15"/>
<path d="M148.652 105.013C148.183 100.578 146.206 97.1246 142.722 94.6532C139.271 92.1818 134.782 90.946 129.254 90.946C125.367 90.946 122.034 91.5385 119.253 92.7233C116.472 93.9084 114.345 95.5165 112.871 97.5479C111.397 99.579 110.643 101.898 110.609 104.505C110.609 106.672 111.095 108.551 112.067 110.142C113.072 111.733 114.429 113.088 116.137 114.205C117.846 115.288 119.739 116.202 121.816 116.947C123.893 117.692 125.987 118.318 128.098 118.826L137.747 121.264C141.633 122.178 145.369 123.413 148.954 124.971C152.572 126.528 155.805 128.492 158.653 130.861C161.534 133.231 163.812 136.092 165.487 139.444C167.162 142.795 168 146.723 168 151.226C168 157.319 166.459 162.685 163.377 167.324C160.294 171.928 155.838 175.534 150.009 178.141C144.213 180.713 137.194 182 128.952 182C120.945 182 113.993 180.747 108.097 178.242C102.234 175.737 97.6436 172.08 94.3269 167.273C91.0437 162.466 89.2679 156.608 89 149.702H107.343C107.611 153.325 108.716 156.338 110.66 158.741C112.603 161.145 115.132 162.94 118.248 164.124C121.397 165.309 124.915 165.902 128.802 165.902C132.855 165.902 136.407 165.292 139.455 164.074C142.538 162.821 144.95 161.094 146.692 158.894C148.434 156.659 149.322 154.053 149.356 151.073C149.322 148.365 148.535 146.13 146.994 144.37C145.452 142.575 143.291 141.086 140.511 139.901C137.764 138.682 134.547 137.599 130.862 136.651L119.153 133.604C110.676 131.403 103.976 128.068 99.0508 123.6C94.1595 119.097 91.7136 113.121 91.7136 105.673C91.7136 99.5452 93.3554 94.1791 96.6386 89.5748C99.9555 84.9706 104.462 81.3988 110.157 78.8597C115.853 76.2866 122.302 75 129.505 75C136.809 75 143.208 76.2866 148.702 78.8597C154.23 81.3988 158.569 84.9367 161.718 89.4733C164.868 93.9761 166.492 99.156 166.593 105.013H148.652Z" fill="#ACFC7E"/>
</svg>
