<svg width="144" height="144" viewBox="0 0 144 144" fill="none" xmlns="http://www.w3.org/2000/svg">
<path d="M94 1.5H50C23.2142 1.5 1.5 23.2142 1.5 50V94C1.5 120.786 23.2142 142.5 50 142.5H94C120.786 142.5 142.5 120.786 142.5 94V50C142.5 23.2142 120.786 1.5 94 1.5Z" fill="#232323" stroke="#343434" stroke-width="3"/>
<path d="M79.0187 62.36C78.8198 60.4992 77.9817 59.0503 76.5045 58.0134C75.0414 56.9765 73.138 56.458 70.7942 56.458C69.1465 56.458 67.7332 56.7066 66.5542 57.2037C65.3752 57.7009 64.4732 58.3756 63.8482 59.2279C63.2232 60.0801 62.9036 61.0532 62.8894 62.1469C62.8894 63.056 63.0954 63.8443 63.5073 64.512C63.9334 65.1796 64.5087 65.7478 65.2332 66.2165C65.9576 66.6711 66.7601 67.0546 67.6408 67.3671C68.5215 67.6796 69.4093 67.9424 70.3042 68.1554L74.3951 69.1782C76.0428 69.5617 77.6266 70.0801 79.1465 70.7336C80.6806 71.387 82.0513 72.2108 83.2587 73.2051C84.4803 74.1995 85.4462 75.3997 86.1564 76.806C86.8667 78.2122 87.2218 79.86 87.2218 81.7492C87.2218 84.306 86.5684 86.5574 85.2616 88.5034C83.9547 90.4353 82.0655 91.948 79.594 93.0418C77.1366 94.1213 74.1607 94.6611 70.6664 94.6611C67.2715 94.6611 64.3241 94.1355 61.8241 93.0844C59.3383 92.0333 57.3922 90.4992 55.986 88.4821C54.594 86.4651 53.8411 84.0077 53.7275 81.11H61.5045C61.6181 82.6299 62.0868 83.8941 62.9107 84.9026C63.7346 85.9111 64.807 86.664 66.128 87.1611C67.4633 87.6583 68.9547 87.9068 70.6025 87.9068C72.3212 87.9068 73.8269 87.6512 75.1195 87.1398C76.4263 86.6142 77.4491 85.8898 78.1877 84.9665C78.9263 84.029 79.3028 82.9353 79.317 81.6853C79.3028 80.5489 78.969 79.6114 78.3155 78.8728C77.6621 78.1199 76.7459 77.4949 75.567 76.9978C74.4022 76.4864 73.0386 76.0318 71.4761 75.6341L66.5116 74.3557C62.9178 73.4324 60.0769 72.0333 57.9888 70.1583C55.915 68.2691 54.878 65.762 54.878 62.637C54.878 60.0659 55.5741 57.8145 56.9661 55.8827C58.3724 53.9509 60.2829 52.4523 62.6976 51.387C65.1124 50.3074 67.8468 49.7676 70.9008 49.7676C73.9974 49.7676 76.7104 50.3074 79.04 51.387C81.3837 52.4523 83.2232 53.9367 84.5584 55.8401C85.8937 57.7293 86.5826 59.9026 86.6252 62.36H79.0187Z" fill="#ACFC7E"/>
</svg>
